<?xml version="1.0" encoding="UTF-8" standalone="no"?>
<!-- Created with Inkscape (http://www.inkscape.org/) -->

<svg
   xmlns:dc="http://purl.org/dc/elements/1.1/"
   xmlns:cc="http://creativecommons.org/ns#"
   xmlns:rdf="http://www.w3.org/1999/02/22-rdf-syntax-ns#"
   xmlns:svg="http://www.w3.org/2000/svg"
   xmlns="http://www.w3.org/2000/svg"
   xmlns:sodipodi="http://sodipodi.sourceforge.net/DTD/sodipodi-0.dtd"
   xmlns:inkscape="http://www.inkscape.org/namespaces/inkscape"
   id="svg2"
   version="1.1"
   inkscape:version="0.91 r13725"
   xml:space="preserve"
   width="450"
   height="236.25"
   viewBox="0 0 450 236.25"
   sodipodi:docname="opt-to-base.svg"><metadata
     id="metadata8"><rdf:RDF><cc:Work
         rdf:about=""><dc:format>image/svg+xml</dc:format><dc:type
           rdf:resource="http://purl.org/dc/dcmitype/StillImage" /><dc:title></dc:title></cc:Work></rdf:RDF></metadata><defs
     id="defs6" /><sodipodi:namedview
     pagecolor="#ffffff"
     bordercolor="#666666"
     borderopacity="1"
     objecttolerance="10"
     gridtolerance="10"
     guidetolerance="10"
     inkscape:pageopacity="0"
     inkscape:pageshadow="2"
     inkscape:window-width="1239"
     inkscape:window-height="657"
     id="namedview4"
     showgrid="false"
     inkscape:zoom="2.0176113"
     inkscape:cx="399.16782"
     inkscape:cy="148.03232"
     inkscape:window-x="0"
     inkscape:window-y="23"
     inkscape:window-maximized="0"
     inkscape:current-layer="g12" /><g
     id="g10"
     inkscape:groupmode="layer"
     inkscape:label="ink_ext_XXXXXX"
     transform="matrix(1.25,0,0,-1.25,0,236.25)"><g
       id="g12"
       transform="scale(0.1,0.1)"><path
         d="m 392,453 2456,0"
         style="fill:none;stroke:#000000;stroke-width:0.625;stroke-linecap:butt;stroke-linejoin:miter;stroke-miterlimit:3.79999995;stroke-dasharray:5, 10;stroke-dashoffset:0;stroke-opacity:1"
         id="path14"
         inkscape:connector-curvature="0" /><path
         d="m 392,453 31.5,0 m 2424.5,0 -31.5,0"
         style="fill:none;stroke:#000000;stroke-width:2.5;stroke-linecap:butt;stroke-linejoin:miter;stroke-miterlimit:3.79999995;stroke-dasharray:none;stroke-opacity:1"
         id="path16"
         inkscape:connector-curvature="0" /><g
         id="g18"
         transform="scale(10,10)"><text
           transform="matrix(1,0,0,-1,29.9525,42.6352)"
           style="font-variant:normal;font-weight:normal;font-size:8px;font-family:Helvetica;-inkscape-font-specification:Helvetica;writing-mode:lr-tb;fill:#000000;fill-opacity:1;fill-rule:nonzero;stroke:none"
           id="text20"><tspan
             x="0"
             y="0"
             id="tspan22">0</tspan></text>
</g><path
         d="m 392,570.5 2456,0"
         style="fill:none;stroke:#000000;stroke-width:0.625;stroke-linecap:butt;stroke-linejoin:miter;stroke-miterlimit:3.79999995;stroke-dasharray:5, 10;stroke-dashoffset:0;stroke-opacity:1"
         id="path24"
         inkscape:connector-curvature="0" /><path
         d="m 392,570.5 15.5,0 m 2440.5,0 -15.5,0"
         style="fill:none;stroke:#000000;stroke-width:2.5;stroke-linecap:butt;stroke-linejoin:miter;stroke-miterlimit:3.79999995;stroke-dasharray:none;stroke-opacity:1"
         id="path26"
         inkscape:connector-curvature="0" /><path
         d="m 392,688.5 2456,0"
         style="fill:none;stroke:#000000;stroke-width:0.625;stroke-linecap:butt;stroke-linejoin:miter;stroke-miterlimit:3.79999995;stroke-dasharray:5, 10;stroke-dashoffset:0;stroke-opacity:1"
         id="path28"
         inkscape:connector-curvature="0" /><path
         d="m 392,688.5 31.5,0 m 2424.5,0 -31.5,0"
         style="fill:none;stroke:#000000;stroke-width:2.5;stroke-linecap:butt;stroke-linejoin:miter;stroke-miterlimit:3.79999995;stroke-dasharray:none;stroke-opacity:1"
         id="path30"
         inkscape:connector-curvature="0" /><g
         id="g32"
         transform="scale(10,10)"><text
           transform="matrix(1,0,0,-1,25.5049,66.1852)"
           style="font-variant:normal;font-weight:normal;font-size:8px;font-family:Helvetica;-inkscape-font-specification:Helvetica;writing-mode:lr-tb;fill:#000000;fill-opacity:1;fill-rule:nonzero;stroke:none"
           id="text34"><tspan
             x="0 4.448"
             y="0"
             sodipodi:role="line"
             id="tspan36">20</tspan></text>
</g><path
         d="m 392,806 2456,0"
         style="fill:none;stroke:#000000;stroke-width:0.625;stroke-linecap:butt;stroke-linejoin:miter;stroke-miterlimit:3.79999995;stroke-dasharray:5, 10;stroke-dashoffset:0;stroke-opacity:1"
         id="path38"
         inkscape:connector-curvature="0" /><path
         d="m 392,806 15.5,0 m 2440.5,0 -15.5,0"
         style="fill:none;stroke:#000000;stroke-width:2.5;stroke-linecap:butt;stroke-linejoin:miter;stroke-miterlimit:3.79999995;stroke-dasharray:none;stroke-opacity:1"
         id="path40"
         inkscape:connector-curvature="0" /><path
         d="m 392,923.5 2456,0"
         style="fill:none;stroke:#000000;stroke-width:0.625;stroke-linecap:butt;stroke-linejoin:miter;stroke-miterlimit:3.79999995;stroke-dasharray:5, 10;stroke-dashoffset:0;stroke-opacity:1"
         id="path42"
         inkscape:connector-curvature="0" /><path
         d="m 392,923.5 31.5,0 m 2424.5,0 -31.5,0"
         style="fill:none;stroke:#000000;stroke-width:2.5;stroke-linecap:butt;stroke-linejoin:miter;stroke-miterlimit:3.79999995;stroke-dasharray:none;stroke-opacity:1"
         id="path44"
         inkscape:connector-curvature="0" /><g
         id="g46"
         transform="scale(10,10)"><text
           transform="matrix(1,0,0,-1,25.5049,89.6852)"
           style="font-variant:normal;font-weight:normal;font-size:8px;font-family:Helvetica;-inkscape-font-specification:Helvetica;writing-mode:lr-tb;fill:#000000;fill-opacity:1;fill-rule:nonzero;stroke:none"
           id="text48"><tspan
             x="0 4.448"
             y="0"
             sodipodi:role="line"
             id="tspan50">40</tspan></text>
</g><path
         d="m 392,1041.5 2456,0"
         style="fill:none;stroke:#000000;stroke-width:0.625;stroke-linecap:butt;stroke-linejoin:miter;stroke-miterlimit:3.79999995;stroke-dasharray:5, 10;stroke-dashoffset:0;stroke-opacity:1"
         id="path52"
         inkscape:connector-curvature="0" /><path
         d="m 392,1041.5 15.5,0 m 2440.5,0 -15.5,0"
         style="fill:none;stroke:#000000;stroke-width:2.5;stroke-linecap:butt;stroke-linejoin:miter;stroke-miterlimit:3.79999995;stroke-dasharray:none;stroke-opacity:1"
         id="path54"
         inkscape:connector-curvature="0" /><path
         d="m 392,1159 2456,0"
         style="fill:none;stroke:#000000;stroke-width:0.625;stroke-linecap:butt;stroke-linejoin:miter;stroke-miterlimit:3.79999995;stroke-dasharray:5, 10;stroke-dashoffset:0;stroke-opacity:1"
         id="path56"
         inkscape:connector-curvature="0" /><path
         d="m 392,1159 31.5,0 m 2424.5,0 -31.5,0"
         style="fill:none;stroke:#000000;stroke-width:2.5;stroke-linecap:butt;stroke-linejoin:miter;stroke-miterlimit:3.79999995;stroke-dasharray:none;stroke-opacity:1"
         id="path58"
         inkscape:connector-curvature="0" /><g
         id="g60"
         transform="scale(10,10)"><text
           transform="matrix(1,0,0,-1,25.5049,113.235)"
           style="font-variant:normal;font-weight:normal;font-size:8px;font-family:Helvetica;-inkscape-font-specification:Helvetica;writing-mode:lr-tb;fill:#000000;fill-opacity:1;fill-rule:nonzero;stroke:none"
           id="text62"><tspan
             x="0 4.448"
             y="0"
             sodipodi:role="line"
             id="tspan64">60</tspan></text>
</g><path
         d="m 392,1276.5 2456,0"
         style="fill:none;stroke:#000000;stroke-width:0.625;stroke-linecap:butt;stroke-linejoin:miter;stroke-miterlimit:3.79999995;stroke-dasharray:5, 10;stroke-dashoffset:0;stroke-opacity:1"
         id="path66"
         inkscape:connector-curvature="0" /><path
         d="m 392,1276.5 15.5,0 m 2440.5,0 -15.5,0"
         style="fill:none;stroke:#000000;stroke-width:2.5;stroke-linecap:butt;stroke-linejoin:miter;stroke-miterlimit:3.79999995;stroke-dasharray:none;stroke-opacity:1"
         id="path68"
         inkscape:connector-curvature="0" /><path
         d="m 392,1394 2456,0"
         style="fill:none;stroke:#000000;stroke-width:0.625;stroke-linecap:butt;stroke-linejoin:miter;stroke-miterlimit:3.79999995;stroke-dasharray:5, 10;stroke-dashoffset:0;stroke-opacity:1"
         id="path70"
         inkscape:connector-curvature="0" /><path
         d="m 392,1394 31.5,0 m 2424.5,0 -31.5,0"
         style="fill:none;stroke:#000000;stroke-width:2.5;stroke-linecap:butt;stroke-linejoin:miter;stroke-miterlimit:3.79999995;stroke-dasharray:none;stroke-opacity:1"
         id="path72"
         inkscape:connector-curvature="0" /><g
         id="g74"
         transform="scale(10,10)"><text
           transform="matrix(1,0,0,-1,25.5049,136.735)"
           style="font-variant:normal;font-weight:normal;font-size:8px;font-family:Helvetica;-inkscape-font-specification:Helvetica;writing-mode:lr-tb;fill:#000000;fill-opacity:1;fill-rule:nonzero;stroke:none"
           id="text76"><tspan
             x="0 4.448"
             y="0"
             sodipodi:role="line"
             id="tspan78">80</tspan></text>
</g><path
         d="m 392,1512 2456,0"
         style="fill:none;stroke:#000000;stroke-width:0.625;stroke-linecap:butt;stroke-linejoin:miter;stroke-miterlimit:3.79999995;stroke-dasharray:5, 10;stroke-dashoffset:0;stroke-opacity:1"
         id="path80"
         inkscape:connector-curvature="0" /><path
         d="m 392,1512 15.5,0 m 2440.5,0 -15.5,0"
         style="fill:none;stroke:#000000;stroke-width:2.5;stroke-linecap:butt;stroke-linejoin:miter;stroke-miterlimit:3.79999995;stroke-dasharray:none;stroke-opacity:1"
         id="path82"
         inkscape:connector-curvature="0" /><path
         d="m 392,1629.5 2456,0"
         style="fill:none;stroke:#000000;stroke-width:0.625;stroke-linecap:butt;stroke-linejoin:miter;stroke-miterlimit:3.79999995;stroke-dasharray:5, 10;stroke-dashoffset:0;stroke-opacity:1"
         id="path84"
         inkscape:connector-curvature="0" /><path
         d="m 392,1629.5 31.5,0 m 2424.5,0 -31.5,0"
         style="fill:none;stroke:#000000;stroke-width:2.5;stroke-linecap:butt;stroke-linejoin:miter;stroke-miterlimit:3.79999995;stroke-dasharray:none;stroke-opacity:1"
         id="path86"
         inkscape:connector-curvature="0" /><g
         id="g88"
         transform="scale(10,10)"><text
           transform="matrix(1,0,0,-1,21.0572,160.285)"
           style="font-variant:normal;font-weight:normal;font-size:8px;font-family:Helvetica;-inkscape-font-specification:Helvetica;writing-mode:lr-tb;fill:#000000;fill-opacity:1;fill-rule:nonzero;stroke:none"
           id="text90"><tspan
             x="0 4.448 8.8959999"
             y="0"
             sodipodi:role="line"
             id="tspan92">100</tspan></text>
<text
           transform="matrix(0.707107,-0.707107,-0.707107,-0.707107,52.2988,38.8488)"
           style="font-variant:normal;font-weight:normal;font-size:7.00000238px;font-family:Helvetica;-inkscape-font-specification:Helvetica;writing-mode:lr-tb;fill:#000000;fill-opacity:1;fill-rule:nonzero;stroke:none"
           id="text94"><tspan
             x="0 3.8920012 7.3920021 8.946003 12.838004"
             y="0"
             sodipodi:role="line"
             id="tspan96">bzip2</tspan><tspan
             x="13.894605 17.786606 21.678606 25.570608 29.462608 31.79361 35.685612"
             y="-13.894604"
             sodipodi:role="line"
             id="tspan98">h264ref</tspan><tspan
             x="27.789209 31.68121 37.512211 43.343212 47.235214"
             y="-27.789209"
             sodipodi:role="line"
             id="tspan100">hmmer</tspan><tspan
             x="41.683811 45.575813 49.467815 55.298817"
             y="-41.683811"
             sodipodi:role="line"
             id="tspan102">namd</tspan><tspan
             x="55.578419 59.470417 63.362419 65.69342 67.247421 71.13942 75.031425 78.923424 82.423424"
             y="-55.578419"
             sodipodi:role="line"
             id="tspan104">perlbench</tspan><tspan
             x="69.473022 72.973022 74.527023 78.419022 82.311028"
             y="-69.473022"
             sodipodi:role="line"
             id="tspan106">sjeng</tspan><tspan
             x="83.332329 86.832329 90.724327 94.616333 96.170326 100.06233"
             y="-83.332329"
             sodipodi:role="line"
             id="tspan108">soplex</tspan><tspan
             x="97.226929 101.11893 105.01093 106.56493 108.11893 112.01093"
             y="-97.226929"
             sodipodi:role="line"
             id="tspan110">bullet</tspan><tspan
             x="111.12154 115.01353 118.51353 120.84454 124.73654"
             y="-111.12153"
             sodipodi:role="line"
             id="tspan112">dcraw</tspan><tspan
             x="125.01614 126.96214 128.90814 134.73914 138.63115 142.52315"
             y="-125.01614"
             sodipodi:role="line"
             id="tspan114">ffmpeg</tspan><tspan
             x="138.91074 140.85675 144.74875 148.64075 152.53275 154.86375 158.36375 160.30975 164.20175 168.09375 171.98575"
             y="-138.91074"
             sodipodi:role="line"
             id="tspan116">fhourstones</tspan><tspan
             x="152.80534 156.30534 160.19736"
             y="-152.80534"
             sodipodi:role="line"
             id="tspan118">vp8</tspan></text>
</g><path
         d="m 392,453 2456,0 0,1176.5 -2456,0 0,-1176.5 z"
         style="fill:none;stroke:#000000;stroke-width:5;stroke-linecap:butt;stroke-linejoin:miter;stroke-miterlimit:3.79999995;stroke-dasharray:none;stroke-opacity:1"
         id="path120"
         inkscape:connector-curvature="0" /><g
         id="g122"
         transform="scale(10,10)"><text
           transform="matrix(0,1,1,0,9.06484,69.6504)"
           style="font-variant:normal;font-weight:normal;font-size:8px;font-family:Helvetica;-inkscape-font-specification:Helvetica;writing-mode:lr-tb;fill:#000000;fill-opacity:1;fill-rule:nonzero;stroke:none"
           id="text124"><tspan
             x="0 5.336 8 12.448 16.896 19.559999 24.007999 30.672001 32.896 37.344002 41.792 43.568001 48.015999 50.240002 54.240002 56.464001 59.127998 66.239998"
             y="0"
             sodipodi:role="line"
             id="tspan126">Program points (%)</tspan></text>
<text
           transform="matrix(1,0,0,-1,57.8031,174.615)"
           style="font-variant:normal;font-weight:normal;font-size:10px;font-family:Helvetica;-inkscape-font-specification:Helvetica;writing-mode:lr-tb;fill:#000000;fill-opacity:1;fill-rule:nonzero;stroke:none"
           id="text128"><tspan
             x="0 6.6700001 10 15.56 21.120001 26.120001 31.68 37.240002 44.459999 50.02 52.799999 58.360001 61.139999 63.919998 66.699997 72.260002 77.82 82.82 85.040001 90.599998 92.82 98.379997 101.16 108.94 115.61 122.83 125.61 131.17 136.73 138.95 144.50999 147.28999 152.28999 155.07001 158.39999"
             y="0"
             sodipodi:role="line"
             id="tspan130">Breakdown of feasible OSR points (f</tspan></text>
<text
           transform="matrix(1,0,0,-1,218.9831,171.615)"
           style="font-variant:normal;font-weight:normal;font-size:8px;font-family:Helvetica;-inkscape-font-specification:Helvetica;writing-mode:lr-tb;fill:#000000;fill-opacity:1;fill-rule:nonzero;stroke:none"
           id="text132"><tspan
             x="0 4.448 8.8959999"
             y="0"
             sodipodi:role="line"
             id="tspan134">opt</tspan></text>
<text
           transform="matrix(1,0,0,-1,230.103,174.615)"
           style="font-variant:normal;font-weight:normal;font-size:10px;font-family:Symbol;-inkscape-font-specification:Symbol;writing-mode:lr-tb;fill:#000000;fill-opacity:1;fill-rule:nonzero;stroke:none"
           id="text136"><tspan
             x="0"
             y="0"
             id="tspan138">→</tspan></text>
<text
           transform="matrix(1,0,0,-1,242.75292,174.615)"
           style="font-variant:normal;font-weight:normal;font-size:10px;font-family:Helvetica;-inkscape-font-specification:Helvetica;writing-mode:lr-tb;fill:#000000;fill-opacity:1;fill-rule:nonzero;stroke:none"
           id="text140"><tspan
             x="0"
             y="0"
             id="tspan142">f</tspan></text>
<text
           transform="matrix(1,0,0,-1,245.53308,171.615)"
           style="font-variant:normal;font-weight:normal;font-size:8px;font-family:Helvetica;-inkscape-font-specification:Helvetica;writing-mode:lr-tb;fill:#000000;fill-opacity:1;fill-rule:nonzero;stroke:none"
           id="text144"><tspan
             x="0 4.448 8.8959999 12.896"
             y="0"
             sodipodi:role="line"
             id="tspan146">base</tspan></text>
<text
           transform="matrix(1,0,0,-1,262.87718,174.615)"
           style="font-variant:normal;font-weight:normal;font-size:10px;font-family:Helvetica;-inkscape-font-specification:Helvetica;writing-mode:lr-tb;fill:#000000;fill-opacity:1;fill-rule:nonzero;stroke:none"
           id="text148"><tspan
             x="0"
             y="0"
             id="tspan150">)</tspan></text>
</g><path
         d="m 490,453 99,0 0,17.5 -99,0 0,-17.5 z"
         style="fill:#2b82ba;fill-opacity:1;fill-rule:nonzero;stroke:none"
         id="path160"
         inkscape:connector-curvature="0" /><path
         d="m 490,453 98.5,0 0,17 -98.5,0 0,-17 z"
         style="fill:none;stroke:#000000;stroke-width:2.5;stroke-linecap:butt;stroke-linejoin:miter;stroke-miterlimit:3.79999995;stroke-dasharray:none;stroke-opacity:1"
         id="path162"
         inkscape:connector-curvature="0" /><path
         d="m 686.5,453 99,0 0,22.5 -99,0 0,-22.5 z"
         style="fill:#2b82ba;fill-opacity:1;fill-rule:nonzero;stroke:none"
         id="path164"
         inkscape:connector-curvature="0" /><path
         d="m 686.5,453 98.5,0 0,22 -98.5,0 0,-22 z"
         style="fill:none;stroke:#000000;stroke-width:2.5;stroke-linecap:butt;stroke-linejoin:miter;stroke-miterlimit:3.79999995;stroke-dasharray:none;stroke-opacity:1"
         id="path166"
         inkscape:connector-curvature="0" /><path
         d="m 883,453 99,0 0,198 -99,0 0,-198 z"
         style="fill:#2b82ba;fill-opacity:1;fill-rule:nonzero;stroke:none"
         id="path168"
         inkscape:connector-curvature="0" /><path
         d="m 883,453 98.5,0 0,197.5 -98.5,0 0,-197.5 z"
         style="fill:none;stroke:#000000;stroke-width:2.5;stroke-linecap:butt;stroke-linejoin:miter;stroke-miterlimit:3.79999995;stroke-dasharray:none;stroke-opacity:1"
         id="path170"
         inkscape:connector-curvature="0" /><path
         d="m 1079.5,453 99,0 0,63 -99,0 0,-63 z"
         style="fill:#2b82ba;fill-opacity:1;fill-rule:nonzero;stroke:none"
         id="path172"
         inkscape:connector-curvature="0" /><path
         d="m 1079.5,453 98.5,0 0,62.5 -98.5,0 0,-62.5 z"
         style="fill:none;stroke:#000000;stroke-width:2.5;stroke-linecap:butt;stroke-linejoin:miter;stroke-miterlimit:3.79999995;stroke-dasharray:none;stroke-opacity:1"
         id="path174"
         inkscape:connector-curvature="0" /><path
         d="m 1276,453 99,0 0,31 -99,0 0,-31 z"
         style="fill:#2b82ba;fill-opacity:1;fill-rule:nonzero;stroke:none"
         id="path176"
         inkscape:connector-curvature="0" /><path
         d="m 1276,453 98.5,0 0,30.5 -98.5,0 0,-30.5 z"
         style="fill:none;stroke:#000000;stroke-width:2.5;stroke-linecap:butt;stroke-linejoin:miter;stroke-miterlimit:3.79999995;stroke-dasharray:none;stroke-opacity:1"
         id="path178"
         inkscape:connector-curvature="0" /><path
         d="m 1472.5,453 99,0 0,397.5 -99,0 0,-397.5 z"
         style="fill:#2b82ba;fill-opacity:1;fill-rule:nonzero;stroke:none"
         id="path180"
         inkscape:connector-curvature="0" /><path
         d="m 1472.5,453 98.5,0 0,397 -98.5,0 0,-397 z"
         style="fill:none;stroke:#000000;stroke-width:2.5;stroke-linecap:butt;stroke-linejoin:miter;stroke-miterlimit:3.79999995;stroke-dasharray:none;stroke-opacity:1"
         id="path182"
         inkscape:connector-curvature="0" /><path
         d="m 1669,453 99,0 0,364.5 -99,0 0,-364.5 z"
         style="fill:#2b82ba;fill-opacity:1;fill-rule:nonzero;stroke:none"
         id="path184"
         inkscape:connector-curvature="0" /><path
         d="m 1669,453 98.5,0 0,364 -98.5,0 0,-364 z"
         style="fill:none;stroke:#000000;stroke-width:2.5;stroke-linecap:butt;stroke-linejoin:miter;stroke-miterlimit:3.79999995;stroke-dasharray:none;stroke-opacity:1"
         id="path186"
         inkscape:connector-curvature="0" /><path
         d="m 1865.5,453 99,0 0,516 -99,0 0,-516 z"
         style="fill:#2b82ba;fill-opacity:1;fill-rule:nonzero;stroke:none"
         id="path188"
         inkscape:connector-curvature="0" /><path
         d="m 1865.5,453 98.5,0 0,515.5 -98.5,0 0,-515.5 z"
         style="fill:none;stroke:#000000;stroke-width:2.5;stroke-linecap:butt;stroke-linejoin:miter;stroke-miterlimit:3.79999995;stroke-dasharray:none;stroke-opacity:1"
         id="path190"
         inkscape:connector-curvature="0" /><path
         d="m 2062,453 99,0 0,887 -99,0 0,-887 z"
         style="fill:#2b82ba;fill-opacity:1;fill-rule:nonzero;stroke:none"
         id="path192"
         inkscape:connector-curvature="0" /><path
         d="m 2062,453 98.5,0 0,886.5 -98.5,0 0,-886.5 z"
         style="fill:none;stroke:#000000;stroke-width:2.5;stroke-linecap:butt;stroke-linejoin:miter;stroke-miterlimit:3.79999995;stroke-dasharray:none;stroke-opacity:1"
         id="path194"
         inkscape:connector-curvature="0" /><path
         d="m 2258.5,453 99,0 0,65 -99,0 0,-65 z"
         style="fill:#2b82ba;fill-opacity:1;fill-rule:nonzero;stroke:none"
         id="path196"
         inkscape:connector-curvature="0" /><path
         d="m 2258.5,453 98.5,0 0,64.5 -98.5,0 0,-64.5 z"
         style="fill:none;stroke:#000000;stroke-width:2.5;stroke-linecap:butt;stroke-linejoin:miter;stroke-miterlimit:3.79999995;stroke-dasharray:none;stroke-opacity:1"
         id="path198"
         inkscape:connector-curvature="0" /><path
         d="m 2455,453 99,0 0,518.5 -99,0 0,-518.5 z"
         style="fill:#2b82ba;fill-opacity:1;fill-rule:nonzero;stroke:none"
         id="path200"
         inkscape:connector-curvature="0" /><path
         d="m 2455,453 98.5,0 0,518 -98.5,0 0,-518 z"
         style="fill:none;stroke:#000000;stroke-width:2.5;stroke-linecap:butt;stroke-linejoin:miter;stroke-miterlimit:3.79999995;stroke-dasharray:none;stroke-opacity:1"
         id="path202"
         inkscape:connector-curvature="0" /><path
         d="m 2651.5,453 99,0 0,163 -99,0 0,-163 z"
         style="fill:#2b82ba;fill-opacity:1;fill-rule:nonzero;stroke:none"
         id="path204"
         inkscape:connector-curvature="0" /><path
         d="m 2651.5,453 98.5,0 0,162.5 -98.5,0 0,-162.5 z"
         style="fill:none;stroke:#000000;stroke-width:2.5;stroke-linecap:butt;stroke-linejoin:miter;stroke-miterlimit:3.79999995;stroke-dasharray:none;stroke-opacity:1"
         id="path206"
         inkscape:connector-curvature="0" /><path
         d="m 490,470 99,0 0,0.5 -99,0 0,-0.5 z"
         style="fill:#abdea3;fill-opacity:1;fill-rule:nonzero;stroke:none"
         id="path218"
         inkscape:connector-curvature="0" /><path
         d="m 490,470 98.5,0 -98.5,0 z"
         style="fill:none;stroke:#000000;stroke-width:2.5;stroke-linecap:butt;stroke-linejoin:miter;stroke-miterlimit:3.79999995;stroke-dasharray:none;stroke-opacity:1"
         id="path220"
         inkscape:connector-curvature="0" /><path
         d="m 686.5,475 99,0 0,598.5 -99,0 0,-598.5 z"
         style="fill:#abdea3;fill-opacity:1;fill-rule:nonzero;stroke:none"
         id="path222"
         inkscape:connector-curvature="0" /><path
         d="m 686.5,475 98.5,0 0,598 -98.5,0 0,-598 z"
         style="fill:none;stroke:#000000;stroke-width:2.5;stroke-linecap:butt;stroke-linejoin:miter;stroke-miterlimit:3.79999995;stroke-dasharray:none;stroke-opacity:1"
         id="path224"
         inkscape:connector-curvature="0" /><path
         d="m 883,650.5 99,0 0,19.5 -99,0 0,-19.5 z"
         style="fill:#abdea3;fill-opacity:1;fill-rule:nonzero;stroke:none"
         id="path226"
         inkscape:connector-curvature="0" /><path
         d="m 883,650.5 98.5,0 0,19 -98.5,0 0,-19 z"
         style="fill:none;stroke:#000000;stroke-width:2.5;stroke-linecap:butt;stroke-linejoin:miter;stroke-miterlimit:3.79999995;stroke-dasharray:none;stroke-opacity:1"
         id="path228"
         inkscape:connector-curvature="0" /><path
         d="m 1079.5,515.5 99,0 0,4.5 -99,0 0,-4.5 z"
         style="fill:#abdea3;fill-opacity:1;fill-rule:nonzero;stroke:none"
         id="path230"
         inkscape:connector-curvature="0" /><path
         d="m 1079.5,515.5 98.5,0 0,4 -98.5,0 0,-4 z"
         style="fill:none;stroke:#000000;stroke-width:2.5;stroke-linecap:butt;stroke-linejoin:miter;stroke-miterlimit:3.79999995;stroke-dasharray:none;stroke-opacity:1"
         id="path232"
         inkscape:connector-curvature="0" /><path
         d="m 1276,483.5 99,0 0,672 -99,0 0,-672 z"
         style="fill:#abdea3;fill-opacity:1;fill-rule:nonzero;stroke:none"
         id="path234"
         inkscape:connector-curvature="0" /><path
         d="m 1276,483.5 98.5,0 0,671.5 -98.5,0 0,-671.5 z"
         style="fill:none;stroke:#000000;stroke-width:2.5;stroke-linecap:butt;stroke-linejoin:miter;stroke-miterlimit:3.79999995;stroke-dasharray:none;stroke-opacity:1"
         id="path236"
         inkscape:connector-curvature="0" /><path
         d="m 1472.5,850 99,0 0,76 -99,0 0,-76 z"
         style="fill:#abdea3;fill-opacity:1;fill-rule:nonzero;stroke:none"
         id="path238"
         inkscape:connector-curvature="0" /><path
         d="m 1472.5,850 98.5,0 0,75.5 -98.5,0 0,-75.5 z"
         style="fill:none;stroke:#000000;stroke-width:2.5;stroke-linecap:butt;stroke-linejoin:miter;stroke-miterlimit:3.79999995;stroke-dasharray:none;stroke-opacity:1"
         id="path240"
         inkscape:connector-curvature="0" /><path
         d="m 1669,817 99,0 0,364 -99,0 0,-364 z"
         style="fill:#abdea3;fill-opacity:1;fill-rule:nonzero;stroke:none"
         id="path242"
         inkscape:connector-curvature="0" /><path
         d="m 1669,817 98.5,0 0,363.5 -98.5,0 0,-363.5 z"
         style="fill:none;stroke:#000000;stroke-width:2.5;stroke-linecap:butt;stroke-linejoin:miter;stroke-miterlimit:3.79999995;stroke-dasharray:none;stroke-opacity:1"
         id="path244"
         inkscape:connector-curvature="0" /><path
         d="m 1865.5,968.5 99,0 0,44.5 -99,0 0,-44.5 z"
         style="fill:#abdea3;fill-opacity:1;fill-rule:nonzero;stroke:none"
         id="path246"
         inkscape:connector-curvature="0" /><path
         d="m 1865.5,968.5 98.5,0 0,44 -98.5,0 0,-44 z"
         style="fill:none;stroke:#000000;stroke-width:2.5;stroke-linecap:butt;stroke-linejoin:miter;stroke-miterlimit:3.79999995;stroke-dasharray:none;stroke-opacity:1"
         id="path248"
         inkscape:connector-curvature="0" /><path
         d="m 2062,1339.5 99,0 0,81.5 -99,0 0,-81.5 z"
         style="fill:#abdea3;fill-opacity:1;fill-rule:nonzero;stroke:none"
         id="path250"
         inkscape:connector-curvature="0" /><path
         d="m 2062,1339.5 98.5,0 0,81 -98.5,0 0,-81 z"
         style="fill:none;stroke:#000000;stroke-width:2.5;stroke-linecap:butt;stroke-linejoin:miter;stroke-miterlimit:3.79999995;stroke-dasharray:none;stroke-opacity:1"
         id="path252"
         inkscape:connector-curvature="0" /><path
         d="m 2258.5,517.5 99,0 0,0.5 -99,0 0,-0.5 z"
         style="fill:#abdea3;fill-opacity:1;fill-rule:nonzero;stroke:none"
         id="path254"
         inkscape:connector-curvature="0" /><path
         d="m 2258.5,517.5 98.5,0 -98.5,0 z"
         style="fill:none;stroke:#000000;stroke-width:2.5;stroke-linecap:butt;stroke-linejoin:miter;stroke-miterlimit:3.79999995;stroke-dasharray:none;stroke-opacity:1"
         id="path256"
         inkscape:connector-curvature="0" /><path
         d="m 2455,971 99,0 0,73 -99,0 0,-73 z"
         style="fill:#abdea3;fill-opacity:1;fill-rule:nonzero;stroke:none"
         id="path258"
         inkscape:connector-curvature="0" /><path
         d="m 2455,971 98.5,0 0,72.5 -98.5,0 0,-72.5 z"
         style="fill:none;stroke:#000000;stroke-width:2.5;stroke-linecap:butt;stroke-linejoin:miter;stroke-miterlimit:3.79999995;stroke-dasharray:none;stroke-opacity:1"
         id="path260"
         inkscape:connector-curvature="0" /><path
         d="m 2651.5,615.5 99,0 0,227 -99,0 0,-227 z"
         style="fill:#abdea3;fill-opacity:1;fill-rule:nonzero;stroke:none"
         id="path262"
         inkscape:connector-curvature="0" /><path
         d="m 2651.5,615.5 98.5,0 0,226.5 -98.5,0 0,-226.5 z"
         style="fill:none;stroke:#000000;stroke-width:2.5;stroke-linecap:butt;stroke-linejoin:miter;stroke-miterlimit:3.79999995;stroke-dasharray:none;stroke-opacity:1"
         id="path264"
         inkscape:connector-curvature="0" /><path
         d="m 490,470 99,0 0,763.5 -99,0 0,-763.5 z"
         style="fill:#0fffbf;fill-opacity:1;fill-rule:nonzero;stroke:none"
         id="path280"
         inkscape:connector-curvature="0" /><path
         d="m 490,470 98.5,0 0,763 -98.5,0 0,-763 z"
         style="fill:none;stroke:#000000;stroke-width:2.5;stroke-linecap:butt;stroke-linejoin:miter;stroke-miterlimit:3.79999995;stroke-dasharray:none;stroke-opacity:1"
         id="path282"
         inkscape:connector-curvature="0" /><path
         d="m 686.5,1073 99,0 0,2.5 -99,0 0,-2.5 z"
         style="fill:#0fffbf;fill-opacity:1;fill-rule:nonzero;stroke:none"
         id="path284"
         inkscape:connector-curvature="0" /><path
         d="m 686.5,1073 98.5,0 0,2 -98.5,0 0,-2 z"
         style="fill:none;stroke:#000000;stroke-width:2.5;stroke-linecap:butt;stroke-linejoin:miter;stroke-miterlimit:3.79999995;stroke-dasharray:none;stroke-opacity:1"
         id="path286"
         inkscape:connector-curvature="0" /><path
         d="m 883,669.5 99,0 0,0.5 -99,0 0,-0.5 z"
         style="fill:#0fffbf;fill-opacity:1;fill-rule:nonzero;stroke:none"
         id="path288"
         inkscape:connector-curvature="0" /><path
         d="m 883,669.5 98.5,0 -98.5,0 z"
         style="fill:none;stroke:#000000;stroke-width:2.5;stroke-linecap:butt;stroke-linejoin:miter;stroke-miterlimit:3.79999995;stroke-dasharray:none;stroke-opacity:1"
         id="path290"
         inkscape:connector-curvature="0" /><path
         d="m 1079.5,519.5 99,0 0,0.5 -99,0 0,-0.5 z"
         style="fill:#0fffbf;fill-opacity:1;fill-rule:nonzero;stroke:none"
         id="path292"
         inkscape:connector-curvature="0" /><path
         d="m 1079.5,519.5 98.5,0 -98.5,0 z"
         style="fill:none;stroke:#000000;stroke-width:2.5;stroke-linecap:butt;stroke-linejoin:miter;stroke-miterlimit:3.79999995;stroke-dasharray:none;stroke-opacity:1"
         id="path294"
         inkscape:connector-curvature="0" /><path
         d="m 1276,1155 99,0 0,0.5 -99,0 0,-0.5 z"
         style="fill:#0fffbf;fill-opacity:1;fill-rule:nonzero;stroke:none"
         id="path296"
         inkscape:connector-curvature="0" /><path
         d="m 1276,1155 98.5,0 -98.5,0 z"
         style="fill:none;stroke:#000000;stroke-width:2.5;stroke-linecap:butt;stroke-linejoin:miter;stroke-miterlimit:3.79999995;stroke-dasharray:none;stroke-opacity:1"
         id="path298"
         inkscape:connector-curvature="0" /><path
         d="m 1472.5,925.5 99,0 0,0.5 -99,0 0,-0.5 z"
         style="fill:#0fffbf;fill-opacity:1;fill-rule:nonzero;stroke:none"
         id="path300"
         inkscape:connector-curvature="0" /><path
         d="m 1472.5,925.5 98.5,0 -98.5,0 z"
         style="fill:none;stroke:#000000;stroke-width:2.5;stroke-linecap:butt;stroke-linejoin:miter;stroke-miterlimit:3.79999995;stroke-dasharray:none;stroke-opacity:1"
         id="path302"
         inkscape:connector-curvature="0" /><path
         d="m 1669,1180.5 99,0 0,155.5 -99,0 0,-155.5 z"
         style="fill:#0fffbf;fill-opacity:1;fill-rule:nonzero;stroke:none"
         id="path304"
         inkscape:connector-curvature="0" /><path
         d="m 1669,1180.5 98.5,0 0,155 -98.5,0 0,-155 z"
         style="fill:none;stroke:#000000;stroke-width:2.5;stroke-linecap:butt;stroke-linejoin:miter;stroke-miterlimit:3.79999995;stroke-dasharray:none;stroke-opacity:1"
         id="path306"
         inkscape:connector-curvature="0" /><path
         d="m 1865.5,1012.5 99,0 0,329.5 -99,0 0,-329.5 z"
         style="fill:#0fffbf;fill-opacity:1;fill-rule:nonzero;stroke:none"
         id="path308"
         inkscape:connector-curvature="0" /><path
         d="m 1865.5,1012.5 98.5,0 0,329 -98.5,0 0,-329 z"
         style="fill:none;stroke:#000000;stroke-width:2.5;stroke-linecap:butt;stroke-linejoin:miter;stroke-miterlimit:3.79999995;stroke-dasharray:none;stroke-opacity:1"
         id="path310"
         inkscape:connector-curvature="0" /><path
         d="m 2062,1420.5 99,0 0,0.5 -99,0 0,-0.5 z"
         style="fill:#0fffbf;fill-opacity:1;fill-rule:nonzero;stroke:none"
         id="path312"
         inkscape:connector-curvature="0" /><path
         d="m 2062,1420.5 98.5,0 -98.5,0 z"
         style="fill:none;stroke:#000000;stroke-width:2.5;stroke-linecap:butt;stroke-linejoin:miter;stroke-miterlimit:3.79999995;stroke-dasharray:none;stroke-opacity:1"
         id="path314"
         inkscape:connector-curvature="0" /><path
         d="m 2258.5,517.5 99,0 0,805 -99,0 0,-805 z"
         style="fill:#0fffbf;fill-opacity:1;fill-rule:nonzero;stroke:none"
         id="path316"
         inkscape:connector-curvature="0" /><path
         d="m 2258.5,517.5 98.5,0 0,804.5 -98.5,0 0,-804.5 z"
         style="fill:none;stroke:#000000;stroke-width:2.5;stroke-linecap:butt;stroke-linejoin:miter;stroke-miterlimit:3.79999995;stroke-dasharray:none;stroke-opacity:1"
         id="path318"
         inkscape:connector-curvature="0" /><path
         d="m 2455,1043.5 99,0 0,0.5 -99,0 0,-0.5 z"
         style="fill:#0fffbf;fill-opacity:1;fill-rule:nonzero;stroke:none"
         id="path320"
         inkscape:connector-curvature="0" /><path
         d="m 2455,1043.5 98.5,0 -98.5,0 z"
         style="fill:none;stroke:#000000;stroke-width:2.5;stroke-linecap:butt;stroke-linejoin:miter;stroke-miterlimit:3.79999995;stroke-dasharray:none;stroke-opacity:1"
         id="path322"
         inkscape:connector-curvature="0" /><path
         d="m 2651.5,842 99,0 0,675 -99,0 0,-675 z"
         style="fill:#0fffbf;fill-opacity:1;fill-rule:nonzero;stroke:none"
         id="path324"
         inkscape:connector-curvature="0" /><path
         d="m 2651.5,842 98.5,0 0,674.5 -98.5,0 0,-674.5 z"
         style="fill:none;stroke:#000000;stroke-width:2.5;stroke-linecap:butt;stroke-linejoin:miter;stroke-miterlimit:3.79999995;stroke-dasharray:none;stroke-opacity:1"
         id="path326"
         inkscape:connector-curvature="0" /><g
         id="g3782"
         transform="translate(-119.99905,0)"><g
           id="g3757"><text
             transform="matrix(10,0,0,-10,3079.5298,774.35304)"
             style="font-variant:normal;font-weight:normal;font-size:8px;font-family:Symbol;-inkscape-font-specification:Symbol;writing-mode:lr-tb;fill:#000000;fill-opacity:1;fill-rule:nonzero;stroke:none"
             id="text152"><tspan
               x="0 4.3920002 6.3920002 10.784 12.784 15.416 17.416"
               y="0"
               sodipodi:role="line"
               id="tspan154">χ = 〈 〉</tspan></text>
<g
             id="g208"
             transform="scale(10,10)"><text
               transform="matrix(1,0,0,-1,316.001,89.4352)"
               style="font-variant:normal;font-weight:normal;font-size:8px;font-family:Helvetica;-inkscape-font-specification:Helvetica;writing-mode:lr-tb;fill:#000000;fill-opacity:1;fill-rule:nonzero;stroke:none"
               id="text210"><tspan
                 x="0 1.776 3.552 7.552"
                 y="0"
                 sodipodi:role="line"
                 id="tspan212">live</tspan></text>
</g><g
             id="g266"
             transform="scale(10,10)"><text
               transform="matrix(1,0,0,-1,308.181,102.235)"
               style="font-variant:normal;font-weight:normal;font-size:8px;font-family:Helvetica;-inkscape-font-specification:Helvetica;writing-mode:lr-tb;fill:#000000;fill-opacity:1;fill-rule:nonzero;stroke:none"
               id="text268"><tspan
                 x="0 1.776 3.552 7.552"
                 y="0"
                 sodipodi:role="line"
                 id="tspan270">live</tspan></text>
<text
               transform="matrix(1,0,0,-1,320.181,99.835)"
               style="font-variant:normal;font-weight:normal;font-size:6.4000001px;font-family:Helvetica;-inkscape-font-specification:Helvetica;writing-mode:lr-tb;fill:#000000;fill-opacity:1;fill-rule:nonzero;stroke:none"
               id="text272"><tspan
                 x="0 2.1312001 5.6896"
                 y="0"
                 sodipodi:role="line"
                 id="tspan274">(e)</tspan></text>
</g><g
             id="g328"
             transform="scale(10,10)"><text
               transform="matrix(1,0,0,-1,311.553,113.435)"
               style="font-variant:normal;font-weight:normal;font-size:8px;font-family:Helvetica;-inkscape-font-specification:Helvetica;writing-mode:lr-tb;fill:#000000;fill-opacity:1;fill-rule:nonzero;stroke:none"
               id="text330"><tspan
                 x="0 4.448 8.448 12.896 14.672"
                 y="0"
                 sodipodi:role="line"
                 id="tspan332">avail</tspan></text>
</g></g><g
           id="g3772"><path
             d="m 3328,771 175.5,0 0,60 -175.5,0 0,-60 z"
             style="fill:#2b82ba;fill-opacity:1;fill-rule:nonzero;stroke:none"
             id="path156"
             inkscape:connector-curvature="0" /><path
             d="m 3328,771 175.5,0 0,60 -175.5,0 0,-60 z"
             style="fill:none;stroke:#000000;stroke-width:2.5;stroke-linecap:butt;stroke-linejoin:miter;stroke-miterlimit:3.79999995;stroke-dasharray:none;stroke-opacity:1"
             id="path158"
             inkscape:connector-curvature="0" /><path
             d="m 3328,891 175.5,0 0,60 -175.5,0 0,-60 z"
             style="fill:#abdea3;fill-opacity:1;fill-rule:nonzero;stroke:none"
             id="path214"
             inkscape:connector-curvature="0" /><path
             d="m 3328,891 175.5,0 0,60 -175.5,0 0,-60 z"
             style="fill:none;stroke:#000000;stroke-width:2.5;stroke-linecap:butt;stroke-linejoin:miter;stroke-miterlimit:3.79999995;stroke-dasharray:none;stroke-opacity:1"
             id="path216"
             inkscape:connector-curvature="0" /><path
             d="m 3328,1011 175.5,0 0,60 -175.5,0 0,-60 z"
             style="fill:#0fffbf;fill-opacity:1;fill-rule:nonzero;stroke:none"
             id="path276"
             inkscape:connector-curvature="0" /><path
             d="m 3328,1011 175.5,0 0,60 -175.5,0 0,-60 z"
             style="fill:none;stroke:#000000;stroke-width:2.5;stroke-linecap:butt;stroke-linejoin:miter;stroke-miterlimit:3.79999995;stroke-dasharray:none;stroke-opacity:1"
             id="path278"
             inkscape:connector-curvature="0" /><path
             d="m 3328,1131 175.5,0 0,60 -175.5,0 0,-60 z"
             style="fill:#d61a1c;fill-opacity:1;fill-rule:nonzero;stroke:none"
             id="path334"
             inkscape:connector-curvature="0" /><path
             d="m 3328,1131 175.5,0 0,60 -175.5,0 0,-60 z"
             style="fill:none;stroke:#000000;stroke-width:2.5;stroke-linecap:butt;stroke-linejoin:miter;stroke-miterlimit:3.79999995;stroke-dasharray:none;stroke-opacity:1"
             id="path336"
             inkscape:connector-curvature="0" /></g></g><path
         d="m 490,1233 99,0 0,397 -99,0 0,-397 z"
         style="fill:#d61a1c;fill-opacity:1;fill-rule:nonzero;stroke:none"
         id="path338"
         inkscape:connector-curvature="0" /><path
         d="m 490,1233 98.5,0 0,396.5 -98.5,0 0,-396.5 z"
         style="fill:none;stroke:#000000;stroke-width:2.5;stroke-linecap:butt;stroke-linejoin:miter;stroke-miterlimit:3.79999995;stroke-dasharray:none;stroke-opacity:1"
         id="path340"
         inkscape:connector-curvature="0" /><path
         d="m 686.5,1075 99,0 0,555 -99,0 0,-555 z"
         style="fill:#d61a1c;fill-opacity:1;fill-rule:nonzero;stroke:none"
         id="path342"
         inkscape:connector-curvature="0" /><path
         d="m 686.5,1075 98.5,0 0,554.5 -98.5,0 0,-554.5 z"
         style="fill:none;stroke:#000000;stroke-width:2.5;stroke-linecap:butt;stroke-linejoin:miter;stroke-miterlimit:3.79999995;stroke-dasharray:none;stroke-opacity:1"
         id="path344"
         inkscape:connector-curvature="0" /><path
         d="m 883,669.5 99,0 0,960.5 -99,0 0,-960.5 z"
         style="fill:#d61a1c;fill-opacity:1;fill-rule:nonzero;stroke:none"
         id="path346"
         inkscape:connector-curvature="0" /><path
         d="m 883,669.5 98.5,0 0,960 -98.5,0 0,-960 z"
         style="fill:none;stroke:#000000;stroke-width:2.5;stroke-linecap:butt;stroke-linejoin:miter;stroke-miterlimit:3.79999995;stroke-dasharray:none;stroke-opacity:1"
         id="path348"
         inkscape:connector-curvature="0" /><path
         d="m 1079.5,519.5 99,0 0,1051.5 -99,0 0,-1051.5 z"
         style="fill:#d61a1c;fill-opacity:1;fill-rule:nonzero;stroke:none"
         id="path350"
         inkscape:connector-curvature="0" /><path
         d="m 1079.5,519.5 98.5,0 0,1051 -98.5,0 0,-1051 z"
         style="fill:none;stroke:#000000;stroke-width:2.5;stroke-linecap:butt;stroke-linejoin:miter;stroke-miterlimit:3.79999995;stroke-dasharray:none;stroke-opacity:1"
         id="path352"
         inkscape:connector-curvature="0" /><path
         d="m 1276,1155 99,0 0,377 -99,0 0,-377 z"
         style="fill:#d61a1c;fill-opacity:1;fill-rule:nonzero;stroke:none"
         id="path354"
         inkscape:connector-curvature="0" /><path
         d="m 1276,1155 98.5,0 0,376.5 -98.5,0 0,-376.5 z"
         style="fill:none;stroke:#000000;stroke-width:2.5;stroke-linecap:butt;stroke-linejoin:miter;stroke-miterlimit:3.79999995;stroke-dasharray:none;stroke-opacity:1"
         id="path356"
         inkscape:connector-curvature="0" /><path
         d="m 1472.5,925.5 99,0 0,704.5 -99,0 0,-704.5 z"
         style="fill:#d61a1c;fill-opacity:1;fill-rule:nonzero;stroke:none"
         id="path358"
         inkscape:connector-curvature="0" /><path
         d="m 1472.5,925.5 98.5,0 0,704 -98.5,0 0,-704 z"
         style="fill:none;stroke:#000000;stroke-width:2.5;stroke-linecap:butt;stroke-linejoin:miter;stroke-miterlimit:3.79999995;stroke-dasharray:none;stroke-opacity:1"
         id="path360"
         inkscape:connector-curvature="0" /><path
         d="m 1669,1335.5 99,0 0,294.5 -99,0 0,-294.5 z"
         style="fill:#d61a1c;fill-opacity:1;fill-rule:nonzero;stroke:none"
         id="path362"
         inkscape:connector-curvature="0" /><path
         d="m 1669,1335.5 98.5,0 0,294 -98.5,0 0,-294 z"
         style="fill:none;stroke:#000000;stroke-width:2.5;stroke-linecap:butt;stroke-linejoin:miter;stroke-miterlimit:3.79999995;stroke-dasharray:none;stroke-opacity:1"
         id="path364"
         inkscape:connector-curvature="0" /><path
         d="m 1865.5,1341.5 99,0 0,288.5 -99,0 0,-288.5 z"
         style="fill:#d61a1c;fill-opacity:1;fill-rule:nonzero;stroke:none"
         id="path366"
         inkscape:connector-curvature="0" /><path
         d="m 1865.5,1341.5 98.5,0 0,288 -98.5,0 0,-288 z"
         style="fill:none;stroke:#000000;stroke-width:2.5;stroke-linecap:butt;stroke-linejoin:miter;stroke-miterlimit:3.79999995;stroke-dasharray:none;stroke-opacity:1"
         id="path368"
         inkscape:connector-curvature="0" /><path
         d="m 2062,1420.5 99,0 0,209.5 -99,0 0,-209.5 z"
         style="fill:#d61a1c;fill-opacity:1;fill-rule:nonzero;stroke:none"
         id="path370"
         inkscape:connector-curvature="0" /><path
         d="m 2062,1420.5 98.5,0 0,209 -98.5,0 0,-209 z"
         style="fill:none;stroke:#000000;stroke-width:2.5;stroke-linecap:butt;stroke-linejoin:miter;stroke-miterlimit:3.79999995;stroke-dasharray:none;stroke-opacity:1"
         id="path372"
         inkscape:connector-curvature="0" /><path
         d="m 2258.5,1322 99,0 0,252 -99,0 0,-252 z"
         style="fill:#d61a1c;fill-opacity:1;fill-rule:nonzero;stroke:none"
         id="path374"
         inkscape:connector-curvature="0" /><path
         d="m 2258.5,1322 98.5,0 0,251.5 -98.5,0 0,-251.5 z"
         style="fill:none;stroke:#000000;stroke-width:2.5;stroke-linecap:butt;stroke-linejoin:miter;stroke-miterlimit:3.79999995;stroke-dasharray:none;stroke-opacity:1"
         id="path376"
         inkscape:connector-curvature="0" /><path
         d="m 2455,1043.5 99,0 0,586.5 -99,0 0,-586.5 z"
         style="fill:#d61a1c;fill-opacity:1;fill-rule:nonzero;stroke:none"
         id="path378"
         inkscape:connector-curvature="0" /><path
         d="m 2455,1043.5 98.5,0 0,586 -98.5,0 0,-586 z"
         style="fill:none;stroke:#000000;stroke-width:2.5;stroke-linecap:butt;stroke-linejoin:miter;stroke-miterlimit:3.79999995;stroke-dasharray:none;stroke-opacity:1"
         id="path380"
         inkscape:connector-curvature="0" /><path
         d="m 2651.5,1516.5 99,0 0,113.5 -99,0 0,-113.5 z"
         style="fill:#d61a1c;fill-opacity:1;fill-rule:nonzero;stroke:none"
         id="path382"
         inkscape:connector-curvature="0" /><path
         d="m 2651.5,1516.5 98.5,0 0,113 -98.5,0 0,-113 z"
         style="fill:none;stroke:#000000;stroke-width:2.5;stroke-linecap:butt;stroke-linejoin:miter;stroke-miterlimit:3.79999995;stroke-dasharray:none;stroke-opacity:1"
         id="path384"
         inkscape:connector-curvature="0" /><path
         d="m 392,453 2456,0 0,1176.5 -2456,0 0,-1176.5 z"
         style="fill:none;stroke:#000000;stroke-width:5;stroke-linecap:butt;stroke-linejoin:miter;stroke-miterlimit:3.79999995;stroke-dasharray:none;stroke-opacity:1"
         id="path386"
         inkscape:connector-curvature="0" /></g></g></svg>